<svg version="1.1" viewBox="0.0 0.0 960.0 560.0" fill="none" stroke="none" stroke-linecap="square" stroke-miterlimit="10" xmlns:xlink="http://www.w3.org/1999/xlink" xmlns="http://www.w3.org/2000/svg"><clipPath id="p.0"><path d="m0 0l960.0 0l0 720.0l-960.0 0l0 -720.0z" clip-rule="nonzero"/></clipPath><g clip-path="url(#p.0)"><path fill="#000000" fill-opacity="0.0" d="m0 0l960.0 0l0 720.0l-960.0 0z" fill-rule="evenodd"/><path fill="#000000" d="m801.1522 0.18897638l0 383.14462l0 0c0 173.92404 -140.99329 314.91733 -314.91733 314.91733l-434.35684 0l0 21.749084l-51.891174 -36.48004l51.891174 -36.47998l0 21.749084l434.35684 0l0 0c157.65274 0 285.45547 -127.802795 285.45547 -285.45547l0 -383.14462z" fill-rule="evenodd"/><path stroke="#000000" stroke-width="1.0" stroke-linejoin="round" stroke-linecap="butt" d="m801.1522 0.18897638l0 383.14462l0 0c0 173.92404 -140.99329 314.91733 -314.91733 314.91733l-434.35684 0l0 21.749084l-51.891174 -36.48004l51.891174 -36.47998l0 21.749084l434.35684 0l0 0c157.65274 0 285.45547 -127.802795 285.45547 -285.45547l0 -383.14462z" fill-rule="evenodd"/></g></svg>